# xmcd
#
# Track frame offsets: 
#        150
#        12480
#        31725
#        42055
#        55891
#        71002
#        84528
#        95378
#        108293
#        122308
#        133280
#        148817
#        162859
#        175125
#        189608
#        204819
#        219156
#        228905
#
# Disc length: 3226 seconds
#
# Revision: 0
# Processed by: cddbd v1.5.2PL0 Copyright (c) Steve Scherf et al.
# Submitted via: ExactAudioCopy v0.99pb4
#
DISCID=ec0c9812
DTITLE=Various Artist - Country Fever
DYEAR=1979
DGENRE=Country
TTITLE0=Charlie Pride - More to Me
TTITLE1=Bill Anderson - I Can't Wait Any Longer
TTITLE2=Merle Haggard - Movin' On
TTITLE3=Joe Stampley - There She Goes Again
TTITLE4=B.J. Thomas - (Hey Won't You Play) Another Somebody Done Someb
TTITLE4=ody Wrong Song
TTITLE5=Roy Clark - Come Live With Me
TTITLE6=George Jones and Tammy Wynette - Near You
TTITLE7=Freddy Fender - You'll Lose a Good Thing
TTITLE8=Glen Campbell - Rhinestone Cowboy
TTITLE9=Mel Tillis - I Believe In You
TTITLE10=Don Williams - Till the rivers All Run Dry
TTITLE11=Billy Crash Craddock - Broken Down in Tiny Pieces
TTITLE12=Charlie Rich - Rolling With the Flow
TTITLE13=Johnny Duncan - The Stranger
TTITLE14=Gene Watson - Love In the Hot Afternoon
TTITLE15=Conway Twitty - The Grandest Lady of Them All
TTITLE16=Linda Ronstadt - When Will I Be Loved
TTITLE17=Dave and Sugar - I'm Gonna Love You
EXTD=
EXTT0=
EXTT1=
EXTT2=
EXTT3=
EXTT4=
EXTT5=
EXTT6=
EXTT7=
EXTT8=
EXTT9=
EXTT10=
EXTT11=
EXTT12=
EXTT13=
EXTT14=
EXTT15=
EXTT16=
EXTT17=
PLAYORDER=
